<svg id="svg8" xmlns="http://www.w3.org/2000/svg" viewBox="0 0 537.1 487.2"><path d="M437.4,544.84c-.2-.4-.4-.7-.6-1.1a6.74,6.74,0,0,0-1.6-2.4c-5.6-5-10.8-8-16.1-9.3a41.3,41.3,0,0,1-12.9-5.8c-9.2-5.8-16.8-10.5-23.9-14.6q-3.15-1.8-6.3-3.3a70.46,70.46,0,0,1-8.5-4.7c-7.3-5-14.7-10.6-22.5-16.9-6.1-5-12.2-10.3-18.1-15.4-1.8-1.6-3.7-3.2-5.5-4.7-6-5.2-12.8-9-19.4-12.7l-1.2-.7c-5.9-3.4-12.7-7.7-17.9-14.2-1.2-1.5-2.4-3.2-3.5-4.8s-2.3-3.3-3.6-4.9a11.58,11.58,0,0,0-4.2-3.3c-5-2.1-10.2-4.1-15.2-6l-3.2-1.2c-5.5-2.1-10.9-1.2-15.9,2.8a13.3,13.3,0,0,1-1.9,1.4c-.6.5-1.3.9-1.9,1.4a14.7,14.7,0,0,1-1.3,1,28.33,28.33,0,0,0-3.7,3.2c-1.2,1.4-2.4,2.8-3.5,4.2a61.25,61.25,0,0,1-4.1,4.8c-4.7,5-10.1,10.9-14.4,17.6-2.6,4.2-5.4,8.3-8.1,12.4-3.2,4.7-6.4,9.6-9.5,14.6a101.25,101.25,0,0,0-7.9,15.3c-3.8,9.3-7.1,18.7-10.2,27.5-1.4,4-2.6,8.2-3.7,12.3l-.6,2.3c-.4,1.5-.8,2.9-1.3,4.4a78.37,78.37,0,0,0-3,12.5c-1.1,8.8-1.8,18.5-2.2,28.9-.2,5.3.2,10.7.5,16l.2,2.9v.1c.7,1.8,1.4,3.8,2.3,5.7a33,33,0,0,0,1.8,3.2l1,1.7v-1.9c-.1-6.2-.2-12.5-.3-18.5v-.4c-.3-15-.2-28.6,3.3-42.1.7-2.9,1.4-5.8,2-8.7,1-4.4,1.9-9,3.3-13.3a95.06,95.06,0,0,1,4.6-11.5c.9-2.1,1.9-4.3,2.8-6.5a278.4,278.4,0,0,1,25.9-49.5c7.2-10.9,17-25,29.6-37.1,5.4-5.1,11-6.4,17.1-4,2,.8,3.9,1.5,5.9,2.3,4.2,1.6,8.5,3.3,12.7,5.1a8.72,8.72,0,0,1,3.2,2.7c1,1.3,1.9,2.7,2.8,4.1s1.9,2.9,3,4.3c4.8,6.3,11.4,11.6,20.5,16.8,6.5,3.7,13.9,8.1,20.5,13.7l3.1,2.7c9.1,7.8,18.5,15.9,27.9,23.6a172.4,172.4,0,0,0,16.9,12.3c2.5,1.6,5.1,2.9,7.6,4.2,2.2,1.1,4.5,2.2,6.6,3.5,6.9,4.1,13.7,8.5,20.4,12.7l4.8,3.1a39.4,39.4,0,0,0,10,4.4,56.24,56.24,0,0,1,9.4,4,58.4,58.4,0,0,1,5.3,3.3c.7.5,1.4,1,2.1,1.4l.2.2,1.1-.6Z" transform="translate(-20.8 -127.84)"/><path d="M557.7,515.64v-6.4l-.2-1.9c-.2-2.1-.4-4.2-.8-6.3-.2-1.5-.4-3-.6-4.4a75.34,75.34,0,0,0-1.6-9.5,228.39,228.39,0,0,0-26.5-62.2c-2.5-4-5-7.9-7.5-11.9-5.4-8.6-11-17.5-16.2-26.4l-4.1-7.1c-12.2-21.3-24.9-43.3-38.7-64.1-7.9-11.9-17-25.9-23.8-41.2a79.1,79.1,0,0,0-12.6-20,23.49,23.49,0,0,1-4.1-7.4c-1.3-3.7-1.2-7.8.2-13.3a4.82,4.82,0,0,0,0-1.2v-1.1h-1.3l-.3.6a10.37,10.37,0,0,0-.4,1c-.1.4-.3.9-.4,1.3-.2.8-.5,1.5-.7,2.4-2.1,8.6-.6,15.5,4.6,21a54.93,54.93,0,0,1,9.6,14.1c7,14.6,13.4,26.1,20,35.9,13.6,20.1,26.9,41.5,39.6,63.4,6.2,10.7,13,22.1,20.2,33.8,2.5,4.1,5.1,8.2,7.6,12.1,3.2,5.1,6.6,10.3,9.6,15.6a200.09,200.09,0,0,1,20.8,51.5,125,125,0,0,1,2.5,15.9c.2,1.9.4,3.8.6,5.6a27.11,27.11,0,0,1-2.4,16.2c-.6,1.3-1.3,2.5-1.9,3.8-3.2,6.5-6.5,13.2-11.4,18.7a64,64,0,0,0-6.3,9.1c-.8,1.3-1.5,2.5-2.3,3.8a12.4,12.4,0,0,1-6.6,5.2l-1.8.6a29.07,29.07,0,0,1-3.9,1.2c-2.4.5-4.8,1-7.2,1.4l-9,1.8c-.8.2-1.5.3-2.3.5a34.54,34.54,0,0,0-8.3,2.5c-5.8,3-11.7,2.7-17.1,2l-7.6-.9-6.9-.9a25.52,25.52,0,0,1-12.6-4.5,49.51,49.51,0,0,1-4.3-3.7c-.8-.7-1.6-1.5-2.5-2.2l-2-1.7,1.2,2.3a10.09,10.09,0,0,1,.7,1.5,21.48,21.48,0,0,0,1.4,2.6c4.6,6.8,11.2,10.7,20.2,11.8,3,.4,5.9.7,8.9,1.1s5.9.7,8.9,1.1a25.31,25.31,0,0,0,3.8.3,22.52,22.52,0,0,0,10-2.2,47.85,47.85,0,0,1,10.1-3.2c3.8-.9,7.7-1.6,11.4-2.3,2.2-.4,4.4-.9,6.7-1.3,7.1-1.5,12-5.2,15.1-11.3a48.36,48.36,0,0,1,5.4-8.2c.7-.9,1.4-1.9,2-2.8a7.41,7.41,0,0,1,1.2-1.3,11.2,11.2,0,0,0,1.7-2l1.3-2.3c2.7-4.9,5.5-10.1,7.9-15.3a36.22,36.22,0,0,0,2.2-7.3c.3-1.1.5-2.2.8-3.3l.2-.6Z" transform="translate(-20.8 -127.84)"/><path d="M438.6,236.34c.4-.2.9-.5,1.4-.7l.5-.2-.3-.5c-3.1-5.1-7.5-11.5-14-16.2l-.2-.1a19.42,19.42,0,0,1-3.1-2.6c-.8-1-2-2.3-2.1-3.5a20.74,20.74,0,0,1,.7-7.1c1.1-3.4,2.5-6.9,3.8-10.2.4-.9.8-1.9,1.1-2.8,1.2-3,2.5-6.1,3.7-9l.4-.7h-.8l-.3-.1-.2.2a1.38,1.38,0,0,0-.3.4l-3.3,7.8c-2.6,6-5.2,12.1-7.3,18.4-1.8,5.6-1,8.4,3.6,12a86.38,86.38,0,0,1,9.1,8.2,37.34,37.34,0,0,1,3.9,5c.6.8,1.1,1.6,1.7,2.4l.3.3.4-.2A5.67,5.67,0,0,1,438.6,236.34Z" transform="translate(-20.8 -127.84)"/><path d="M409.7,175.94c-1-4.7.3-9,1.5-13.2l.2-.8-.9-.3c-.3.9-.7,1.7-1,2.6-2,5.1-4.1,10.3-2.6,16.5l.1.6.5-.2a15.86,15.86,0,0,0,1.8-.8c1.6-.8,3.2-1.7,4.8-2.5,4.2-2.2,8.5-4.5,12.7-6.9a39,39,0,0,0,7.5-5.8,26.61,26.61,0,0,0,2.8-3.8c.4-.6.7-1.2,1.1-1.8l.2-.3-.3-.3c-.1-.1-.2-.1-.2-.2l-.1-.1h0l2.4-2.4a31.84,31.84,0,0,1,3.4-3.1,3.37,3.37,0,0,1,1.2-.4.37.37,0,0,0,.3-.1,5.16,5.16,0,0,0,.2,1.1l.4,2.3,1.1-2.6c.6-1.4,1.2-2.8,1.7-4.2a2.88,2.88,0,0,0,.1-1.3v-1.1l-.6.1h-.6a2.23,2.23,0,0,0-1.4.3,22.24,22.24,0,0,0-7.4,9.4l-.9,1.9-.2-.3-.3.5a24.92,24.92,0,0,1-8.6,7.3c-5.9,3.2-11.9,6.4-17.6,9.6A1.94,1.94,0,0,0,409.7,175.94Z" transform="translate(-20.8 -127.84)"/><path d="M166.7,204.44c6.1-7.1,13.7-11.9,21.7-16.5a44.62,44.62,0,0,1,7.6-3.5,102.79,102.79,0,0,0,21.2-10.7c2.6-1.7,3-3.9,3.2-6.3v-1h0v-.1l-.8.5c-1.2.7-2.2,1.4-3.2,2.1a93.66,93.66,0,0,1-19.5,10.3,79.77,79.77,0,0,0-28.6,18.5c-3.9,3.9-7.9,8-12.1,11.7-6.6,5.9-10.8,11.8-13.4,18.3a26.7,26.7,0,0,1-11.3,13.1c-7.6,4.4-13.5,7.7-19.2,10.5-3.1,1.5-6.4,2.9-9.5,4.3-4,1.7-8.1,3.5-12,5.5-7.8,4.1-16.1,8.8-25.4,14.5A327.63,327.63,0,0,0,27,303c-1.9,1.5-3.7,3.1-5.6,4.8l.1.1-.7.6,3,.8,23.5-15.4,79.1-46c1.6-.8,3-1.7,4.4-2.5,6.8-4,11.3-8.9,13.8-15a41,41,0,0,1,10.3-14.7c1.3-1.2,2.7-2.4,4-3.6C161.5,209.64,164.3,207.14,166.7,204.44Z" transform="translate(-20.8 -127.84)"/><path d="M231.2,174.34c-.2.7-.3,1.4-.5,2.2-.1.3-.1.7-.2,1.1l-.1.7.7-.1c13.6-1.5,27.1-2.9,40.5-4.3v.3c0,.4-.1.7-.1,1.1a9.39,9.39,0,0,0,0,2.9,6.19,6.19,0,0,0,2.9,3.8,6,6,0,0,0,2.9.8,8.75,8.75,0,0,0,1.6-.2l.7-.2c6.6-1.9,13.5-3.8,20.1-6.2a89.85,89.85,0,0,1,18-4.7c2-.2,4-.5,6-.8,2.6-.4,5.3-.7,8-1l2.3-.3c2.4-.3,4.7-.7,7.1,0l2.3.6c1.9.5,4,1,5.9,1.7.8.3,1.7.6,2.5.9,4.8,1.7,9.7,3.4,14.9,3.8a5,5,0,0,1,1.2.2,5.37,5.37,0,0,0,3.9-.3,175,175,0,0,0,25.3-15.8c6.8-5.2,11.3-10.5,14.2-16.6a15.39,15.39,0,0,0,.8-1.9l1.1-2.9.2-.1c1.3-1.1,2.7-2.3,4.1-3.4l1.8-1.5-.6,3c-.2,1.1-.4,2.3-.7,3.4l-1,4.4,1.9-4.1a31.41,31.41,0,0,0,3.1-12.1l.1-.9-.8.5c-3.9,2.3-7.6,5.2-8.6,10.3l-.3,1.4.1-.1-1.2,1.8a52.8,52.8,0,0,1-10,11.4c-7.5,6.4-16.5,12.2-28.2,18.4a2.79,2.79,0,0,1-1.7.5c-.5-.1-1-.1-1.4-.2a32.91,32.91,0,0,1-6.4-1.1c-3.4-1-6.8-2.1-10.1-3.2-2-.6-3.9-1.3-5.9-1.9-3.3-1-7.2-2-11.3-1.3-4.3.7-8.7,1.2-12.9,1.7a97.09,97.09,0,0,0-18.1,3.7c-8.1,2.7-16.4,5.4-24.6,8-3.8,1.2-5.8.3-7.9-3.4l-.2-.3h-.2v-.1h.1l.1-.3c.2-.6.3-1.1.5-1.7s.4-1.5.6-2.3l.2-.6h-1.1c-.3,0-.6-.1-.8,0-4.4.4-8.9.9-13.2,1.4-4.8.5-9.8,1-14.7,1.5-1.3.1-2.6.3-3.9.4-2.4.3-4.9.5-7.4.9A2,2,0,0,0,231.2,174.34Z" transform="translate(-20.8 -127.84)"/><path d="M218.2,175.84v1.1h.5a.6.6,0,0,1,.4.1,4.33,4.33,0,0,1,.5.1h.2l2.1-.6c2.5-.7,5-1.3,7.5-2.2s3.4-2.4,3.2-5.3l-.1-.6-.6.2c-1.1.4-2.2.7-3.3,1.1-2.1.7-4.4,1.5-6.6,2.1l-.3.1C218.9,172.54,218.8,172.74,218.2,175.84Z" transform="translate(-20.8 -127.84)"/><path d="M433.8,240.64c-.6,2,.2,4.6,2.2,7.1l.9,1.2v-11l-.7.2A3.56,3.56,0,0,0,433.8,240.64Z" transform="translate(-20.8 -127.84)"/><path d="M415.6,232.34l-.6-.2-.3,1.9c-.3,2-.6,3.9-.7,5.7-.1.5.3.9.5,1.2.1.1.2.2.2.3l.3.5.4-.4c.1-.1.2-.2.3-.2a1.19,1.19,0,0,0,.8-1c.4-2.3.7-4.6,1-6.8l.1-.4-1-.3A3.26,3.26,0,0,1,415.6,232.34Z" transform="translate(-20.8 -127.84)"/></svg>