<?xml version="1.0" encoding="utf-8"?>
<!-- Generator: Adobe Illustrator 24.1.2, SVG Export Plug-In . SVG Version: 6.00 Build 0)  -->
<svg version="1.1"
	 id="svg8" xmlns:cc="http://creativecommons.org/ns#" xmlns:dc="http://purl.org/dc/elements/1.1/" xmlns:inkscape="http://www.inkscape.org/namespaces/inkscape" xmlns:rdf="http://www.w3.org/1999/02/22-rdf-syntax-ns#" xmlns:sodipodi="http://sodipodi.sourceforge.net/DTD/sodipodi-0.dtd" xmlns:svg="http://www.w3.org/2000/svg"
	 xmlns="http://www.w3.org/2000/svg" xmlns:xlink="http://www.w3.org/1999/xlink" x="0px" y="0px" viewBox="0 0 1000 250"
	 style="enable-background:new 0 0 1000 250;" xml:space="preserve">
<style type="text/css">
	.st0{enable-background:new    ;}
	.st1{fill-rule:evenodd;clip-rule:evenodd;}
</style>
<sodipodi:namedview  bordercolor="#666666" borderopacity="1.0" id="base" inkscape:current-layer="layer1-6" inkscape:cx="831.36469" inkscape:cy="42.030212" inkscape:document-units="mm" inkscape:guide-bbox="true" inkscape:pageopacity="0.0" inkscape:pageshadow="2" inkscape:window-height="1714" inkscape:window-maximized="1" inkscape:window-width="2736" inkscape:window-x="-12" inkscape:window-y="-12" inkscape:zoom="1.979899" pagecolor="#ffffff" showgrid="false" showguides="true" units="px">
	<sodipodi:guide  id="guide1059" inkscape:locked="false" orientation="1,0" position="132.66964,160.63988"></sodipodi:guide>
	<sodipodi:guide  id="guide1061" inkscape:locked="false" orientation="1,0" position="48.853422,67.752234"></sodipodi:guide>
	<sodipodi:guide  id="guide1063" inkscape:locked="false" orientation="1,0" position="217.82059,23.777065"></sodipodi:guide>
	<sodipodi:guide  id="guide1097" inkscape:locked="false" orientation="0,1" position="44.849238,25.643322"></sodipodi:guide>
	<sodipodi:guide  id="guide1099" inkscape:locked="false" orientation="0,1" position="72.571428,40.632442"></sodipodi:guide>
	<sodipodi:guide  id="guide1125" inkscape:locked="false" orientation="1,0" position="42.286087,18.934245"></sodipodi:guide>
	<sodipodi:guide  id="guide1127" inkscape:locked="false" orientation="1,0" position="224.99918,47.565624"></sodipodi:guide>
	<sodipodi:guide  id="guide1146" inkscape:locked="false" orientation="1,0" position="219.79171,25.643324"></sodipodi:guide>
	<sodipodi:guide  id="guide1148" inkscape:locked="false" orientation="1,0" position="46.838984,28.397388"></sodipodi:guide>
</sodipodi:namedview>
<g id="layer1" transform="translate(0,-230.85415)" inkscape:groupmode="layer" inkscape:label="Layer 1">
	<g id="layer1-81" transform="translate(-13.229164,-46.491075)" inkscape:label="Layer 1">
		<g id="layer1-8" transform="translate(11.249599,-4.3372291)" inkscape:label="Layer 1">
			
				<g id="layer1-6" transform="translate(10.129824,9.1541715)" inkscape:export-xdpi="300" inkscape:export-ydpi="300" inkscape:label="Layer 1">
				<g class="st0">
					<path d="M175,329.5v-0.9h22.4c6.6,0,11.2,0.3,13.9,0.8c2.7,0.5,5.4,1.6,7.9,3.1c2.5,1.5,4.6,3.8,6.4,6.7
						c1.8,2.9,2.6,6.2,2.6,9.9c0,7.3-3.6,13.1-10.8,17.3c6.2,1.1,10.9,3.6,14.1,7.7c3.2,4.1,4.7,9,4.7,14.9c0,5.4-1.4,10.4-4.1,14.8
						c-2.7,4.5-5.8,7.4-9.3,8.9c-3.5,1.5-8.4,2.2-14.7,2.2h-33.3v-0.9c2.7,0,4.4-0.5,5.1-1.6c0.7-1.1,1.1-3.8,1.1-8.2v-65
						c0-3.1-0.1-5.3-0.3-6.4c-0.2-1.1-0.8-2-1.7-2.5C178.1,329.8,176.7,329.5,175,329.5z M191,330.5v37.9h10.5
						c7.1,0,11.8-2,14.2-6.1c2.3-4.1,3.5-8.1,3.5-12.1c0-4.3-0.9-8-2.7-10.9c-1.8-2.9-4.4-5.1-7.9-6.6c-3.5-1.5-8.5-2.2-15.3-2.2
						H191z M197.8,370.2H191v27.4c0,3.8,0.1,6.3,0.4,7.4s1,2.3,2,3.6c1,1.3,2.7,2.3,5,3c2.3,0.8,5.6,1.1,10,1.1
						c6.7,0,11.5-1.6,14.2-4.7c2.8-3.1,4.2-7.7,4.2-13.8c0-6.3-1.2-11.5-3.7-15.5s-5.2-6.4-8.3-7.3
						C211.7,370.6,206,370.2,197.8,370.2z"/>
					<path d="M285.7,375.2h-25.3l-13.1,32.6c-0.9,2.3-1.3,3.8-1.3,4.3c0,1.3,1,1.9,2.9,1.9v0.9H236v-0.9c1.7,0,3.2-0.4,4.3-1.3
						c1.2-0.8,2.5-3,3.9-6.5l31.3-78.9h1.6l30.8,76.2c0,0.4,0.8,2.2,2.4,5.5c1.6,3.3,4,5,7.2,5v0.9h-20.2v-0.9
						c1.8,0,2.8-0.7,2.8-2.2c0-1-0.4-2.5-1.3-4.7c-0.2-0.2-0.3-0.4-0.4-0.8c-0.1-0.4-0.1-0.6-0.2-0.6L285.7,375.2z M261.2,372.8
						h23.3l-11.7-29.4L261.2,372.8z"/>
					<path d="M364.1,328.6H377v0.9c-1.6,0.1-3,0.5-4,1.2c-1.1,0.7-2.3,2-3.6,4.1l-21.1,32v39.5c0,3.2,0.4,5.3,1.2,6.3
						s2.6,1.5,5.4,1.5v0.9h-23.1v-0.9c4.4,0.3,6.6-1.5,6.6-5.2l-0.1-2.5v-36.5l-21.2-35c-2.2-3.7-4.7-5.5-7.4-5.4v-0.9h20.4v0.9
						c-1.9,0-2.9,0.7-2.9,2.2c0,0.7,0.5,1.9,1.5,3.4l17.4,28.7l19-28.9c0.4-0.3,0.7-0.9,1.2-1.7c0.4-0.8,0.6-1.4,0.6-1.7
						c0-1.3-0.8-1.9-2.5-1.9h-0.4V328.6z"/>
					<path d="M480.7,371.9h-47.4v33.2c0,3.1,0.1,5.1,0.4,6c0.3,0.9,0.8,1.6,1.6,2.2c0.8,0.6,2.2,0.9,4.2,0.9v0.9h-22.3v-0.9
						c4.1,0.3,6.1-1.7,6.1-5.9v-69.4c0-3.9-0.3-6.4-1-7.5s-2.4-1.6-5.1-1.8v-0.9h22.3v0.9c-2.5,0.2-4.1,0.6-5,1.4
						c-0.9,0.8-1.3,2.4-1.3,4.8v33.8h47.4v-30.9c0-3.5-0.3-5.9-0.9-7.2c-0.6-1.3-2.3-1.9-5.1-1.9v-0.9h22v0.9c-1.7,0-3,0.2-3.9,0.6
						c-0.9,0.4-1.4,1-1.7,1.9c-0.3,0.9-0.5,3-0.5,6.6v66.2c0,3.4,0.2,5.5,0.5,6.4c0.3,0.8,0.9,1.5,1.6,2.1c0.8,0.5,2.1,0.8,4,0.8
						v0.9h-22v-0.9c2.4,0,4-0.5,4.8-1.5c0.8-1,1.2-3.6,1.2-7.9V371.9z"/>
					<path d="M553.8,327.4c12.1,0,22,3.7,29.7,11c7.7,7.4,11.5,16.6,11.5,27.6c0,14.2-4.5,26.1-13.4,35.8
						c-8.9,9.7-20.7,14.5-35.4,14.5c-12,0-21.7-3.9-29.4-11.7c-7.6-7.8-11.4-17.2-11.4-28.1c0-7.4,1.8-15,5.5-22.7
						c3.7-7.8,9.2-14.1,16.6-19C535,329.8,543.7,327.4,553.8,327.4z M553.5,411.7c5.9,0,11.8-1.6,17.6-4.8s10.3-7.6,13.7-13.2
						c3.3-5.6,5-11.3,5-17.2c0-8.4-2.2-16-6.7-22.8c-4.5-6.8-10.3-12.2-17.4-16.1s-13.7-5.8-19.8-5.8c-8.6,0-16.3,3.2-23.3,9.7
						s-10.5,14.5-10.5,24c0,12.2,4.3,23,12.8,32.2S542.9,411.7,553.5,411.7z"/>
					<path d="M603.8,329.5v-0.9h24.5c6.2,0,10.7,0.1,13.5,0.4c2.8,0.3,5.6,1.2,8.5,2.7c2.9,1.5,5.1,3.6,6.6,6.3
						c1.5,2.6,2.2,5.9,2.2,9.7c0,4.4-1.3,8.6-4,12.5c-2.6,4-6.4,7.3-11.2,10.1l6.1,9.4c1.3,2.3,4.9,7.5,10.6,15.4
						c5.7,7.9,10.1,12.8,13.3,14.5c3.1,1.7,6.2,2.6,9.1,2.6c2.9,0,6.2-1.1,10-3.3l0.4,1.2c-4.7,3.8-10.8,5.7-18.3,5.7
						c-5,0-9.3-1.5-12.9-4.4s-9.8-11.1-18.7-24.3c-0.1-0.1-0.1-0.2-0.1-0.2l-8.7-13.4l-7.7,0.2h-7v33c0,2.7,0.3,4.6,1,5.7
						c0.7,1.2,2.4,1.7,5,1.7v0.9h-22.3v-0.9c2.8-0.1,4.5-0.7,5.2-1.8s1-3.2,1-6.4v-68.6c0-2.2-0.3-4.1-0.9-5.5
						S606.7,329.6,603.8,329.5z M619.9,330.9v40.5h9c7.1,0,12.4-1.7,15.9-5c3.4-3.4,5.2-7.8,5.2-13.2c0-5.3-1.7-10.3-5.1-15.1
						s-9.3-7.1-17.9-7.1H619.9z"/>
					<path d="M740.2,329.8l4.1,10.8l-0.7,0.1c0,0-1.1-1.2-3.3-3.5c-2.2-2.3-4.6-4-7.4-5.2c-2.8-1.2-5.9-1.8-9.5-1.8
						c-5.9,0-10.6,1.7-14,5.1c-3.5,3.4-5.2,7.5-5.2,12.2c0,3.2,0.8,5.9,2.4,8.3c1.6,2.4,5,4.6,10.2,6.6c8.9,3,14.9,5.2,18.2,6.7
						c3.3,1.5,6.4,4,9.4,7.6c3,3.6,4.5,8.2,4.5,13.8c0,2.3-0.3,4.6-0.8,6.7c-0.5,2.1-1.4,4.2-2.6,6.1c-1.2,2-2.7,3.8-4.4,5.4
						c-1.7,1.6-3.4,2.8-5.2,3.7s-4.5,1.5-8.3,1.9c-3.8,0.4-6.3,0.6-7.5,0.6h-23v-25.1h0.9c0.1,8.3,2,14.1,5.9,17.4
						c3.8,3.3,9.8,4.9,17.9,4.9c7.3,0,12.9-1.7,16.7-5.2s5.7-7.7,5.7-12.5c0-3-0.7-5.5-2-7.6c-1.3-2.1-3.2-3.9-5.6-5.5
						c-2.4-1.6-6.9-3.5-13.5-5.8c-6.6-2.3-11.2-4.3-13.9-6.1s-4.9-4.4-6.7-7.8c-1.8-3.5-2.7-7.1-2.7-10.7c0-6.7,2.3-12.3,6.9-16.8
						c4.6-4.5,10.6-6.8,18.1-6.8c2.9,0,6,0.3,9.4,1c3.4,0.7,5.2,1.1,5.6,1.3C739.9,329.7,740,329.8,740.2,329.8z"/>
					<path d="M756.3,329.6v-1h54.3v11.9h-0.9c-1.2-4.4-2.2-7-3-7.8c-0.8-0.8-2.8-1.2-5.9-1.2h-28.5v38.7h26.4c2.6,0,4.3-0.2,5-0.7
						c0.7-0.5,1.1-1.2,1.1-2.1h0.9v8.1h-0.9c-0.2-1.1-0.7-1.9-1.4-2.3c-0.7-0.4-2.1-0.6-4-0.6h-27.1v26.7c0,4,0.4,6.9,1.1,8.7
						s1.9,2.9,3.5,3.3c1.6,0.4,4.1,0.7,7.3,0.7h15.2c4.8,0,7.9-0.2,9.3-0.5c1.3-0.3,2.5-1,3.4-2c0.9-1,1.7-3.2,2.2-6.5h0.9V415h-59
						v-0.9c2-0.1,3.5-0.5,4.5-1.1c1-0.6,1.6-2.3,1.6-5v-69.7c0-3.2-0.3-5.4-0.8-6.7C761,330.3,759.3,329.6,756.3,329.6z"/>
				</g>
				<g class="st0">
					<path d="M169,437.5h5.7c3.9,0,5.8,1.5,5.8,4.5c0,1.2-0.4,2.2-1.1,3c-0.6,0.7-1.6,1.2-2.7,1.5l4.2,8.7h-1.7l-4-8.5
						c-0.2,0-0.5,0-0.9,0h-3.8v8.4H169V437.5z M170.6,438.8v6.6h3.9c3,0,4.5-1.1,4.5-3.4c0-1.2-0.4-2-1.1-2.5
						c-0.7-0.5-1.8-0.7-3.2-0.7H170.6z"/>
					<path d="M266.2,437.2c2.2,0,4,0.9,5.3,2.7c1.2,1.6,1.8,3.8,1.8,6.4c0,3-0.8,5.4-2.3,7.1c-1.3,1.4-2.9,2.1-4.8,2.1
						c-2.2,0-4-0.9-5.3-2.7c-1.2-1.6-1.8-3.8-1.8-6.4c0-3,0.8-5.4,2.3-7.1C262.7,437.9,264.3,437.2,266.2,437.2z M266.2,438.6
						c-1.7,0-3.1,0.8-4,2.3c-0.9,1.4-1.3,3.2-1.3,5.5c0,2.6,0.6,4.6,1.7,6.1c0.9,1.2,2.2,1.8,3.7,1.8c1.7,0,3.1-0.8,4.1-2.3
						c0.9-1.4,1.3-3.2,1.3-5.5c0-2.6-0.6-4.6-1.7-6C268.9,439.1,267.7,438.6,266.2,438.6z"/>
					<path d="M365.2,437.5v11.9c0,2.2-0.7,3.8-2,4.9c-1.1,0.9-2.4,1.3-4.1,1.3c-2,0-3.5-0.6-4.5-1.7c-1-1.1-1.6-2.6-1.6-4.5v-11.9
						h1.6v11.8c0,1.7,0.5,3,1.4,3.9c0.8,0.7,1.8,1,3.2,1c1.5,0,2.7-0.4,3.5-1.3c0.7-0.8,1.1-2,1.1-3.5v-11.8H365.2z"/>
					<path d="M458.1,441.9l-1.5,0.5c-0.7-2.6-2.2-3.8-4.5-3.8c-1.7,0-3.1,0.8-4.1,2.3c-0.9,1.4-1.4,3.2-1.4,5.5c0,2.6,0.6,4.6,1.7,6
						c1,1.2,2.2,1.8,3.7,1.8c1.7,0,2.9-0.7,3.7-2.1c0.6-1.1,1-2.5,1-4.2h-4.9v-1.4h6.4v8.7h-1.1l-0.2-3c-0.5,1.1-1.2,2-2.2,2.6
						c-0.8,0.5-1.8,0.7-2.8,0.7c-2.2,0-4-0.9-5.3-2.7c-1.2-1.6-1.8-3.8-1.8-6.4c0-3,0.8-5.4,2.3-7.1c1.3-1.4,2.9-2.1,4.8-2.1
						c1.6,0,3,0.5,4.1,1.5C457.1,439.5,457.7,440.6,458.1,441.9z"/>
					<path d="M551,437.5v17.7h-1.6v-8.6h-9.2v8.6h-1.6v-17.7h1.6v7.7h9.2v-7.7H551z"/>
					<path d="M633.4,437.5v16.3h8.8v1.4h-10.4v-17.7H633.4z"/>
					<path d="M732.1,437.5v1.4h-9.1v6.2h6.9v1.4h-6.9v7.4h9.2v1.4h-10.8v-17.7H732.1z"/>
					<path d="M822.3,437.5v1.4h-9.1v6.2h6.9v1.4h-6.9v7.4h9.2v1.4h-10.8v-17.7H822.3z"/>
				</g>
				<g id="flowRoot1781" transform="matrix(0.26458333,0,0,0.26458333,-9.508546,38.754082)">
				</g>
				<g id="flowRoot1789" transform="matrix(0.26458333,0,0,0.26458333,-9.508546,38.754082)">
				</g>
				<rect id="rect1087" x="169" y="424.2" class="st1" width="653.5" height="1.4"/>
				<g class="st0">
					<path d="M55.3,367.3l-2.6,6.8h-0.6c0.1-0.4,0.1-1,0.1-1.6c0-0.6-0.2-1-0.6-1.1c-0.4-0.2-1.1-0.2-1.9-0.2H35.5v48.3
						c0,2,0.2,3.4,0.5,4.1c0.3,0.7,0.7,1.2,1.3,1.4c0.5,0.2,1.4,0.3,2.6,0.3v0.6H25v-0.6c1.9-0.1,3-0.5,3.5-1.1
						c0.5-0.6,0.7-1.9,0.7-3.8v-49.1H15.5c-1.4,0-2.3,0.1-2.7,0.2c-0.4,0.2-0.6,0.6-0.6,1.2c0,0.3,0.1,0.8,0.3,1.5h-0.6l-2.6-6.8
						h0.6c0.4,0.9,0.9,1.5,1.3,1.7c0.4,0.2,1.4,0.3,2.8,0.3h36.3c1.4,0,2.5-0.1,3.1-0.3c0.6-0.2,1.1-0.7,1.4-1.7H55.3z"/>
					<path d="M98.3,397.5h-30v21.7c0,2,0.1,3.3,0.3,3.9s0.5,1,1,1.4c0.5,0.4,1.4,0.6,2.7,0.6v0.6H58.1v-0.6c2.6,0.2,3.9-1.1,3.9-3.9
						v-45.4c0-2.6-0.2-4.2-0.6-4.9s-1.5-1.1-3.2-1.1v-0.6h14.1v0.6c-1.6,0.1-2.6,0.4-3.2,0.9c-0.5,0.5-0.8,1.6-0.8,3.1V396h30v-20.2
						c0-2.3-0.2-3.9-0.6-4.7c-0.4-0.8-1.5-1.2-3.2-1.2v-0.6h14v0.6c-1.1,0-1.9,0.1-2.5,0.4c-0.5,0.3-0.9,0.7-1.1,1.2
						c-0.2,0.6-0.3,2-0.3,4.3v43.3c0,2.2,0.1,3.6,0.3,4.2c0.2,0.5,0.5,1,1,1.4s1.3,0.5,2.5,0.5v0.6h-14v-0.6c1.5,0,2.5-0.3,3-1
						c0.5-0.6,0.8-2.4,0.8-5.2V397.5z"/>
					<path d="M114.4,369.9v-0.7h34.4v7.8h-0.6c-0.7-2.9-1.4-4.6-1.9-5.1c-0.5-0.5-1.8-0.8-3.7-0.8h-18v25.3h16.7
						c1.7,0,2.7-0.2,3.2-0.5c0.4-0.3,0.7-0.8,0.7-1.4h0.6v5.3h-0.6c-0.1-0.7-0.4-1.2-0.9-1.5c-0.5-0.3-1.3-0.4-2.5-0.4h-17.2v17.4
						c0,2.6,0.2,4.5,0.7,5.7c0.5,1.2,1.2,1.9,2.2,2.2c1,0.3,2.6,0.4,4.7,0.4h9.6c3.1,0,5-0.1,5.9-0.3c0.9-0.2,1.6-0.6,2.2-1.3
						c0.6-0.6,1-2.1,1.4-4.2h0.6v7.7h-37.4v-0.6c1.3-0.1,2.2-0.3,2.9-0.7c0.7-0.4,1-1.5,1-3.3v-45.6c0-2.1-0.2-3.5-0.5-4.4
						C117.4,370.3,116.3,369.9,114.4,369.9z"/>
				</g>
				<g class="st0">
					<path d="M856.8,369.1v0.6c-0.7-0.1-1.5,0-2.4,0.3c-0.9,0.3-1.4,0.8-1.6,1.3c-0.2,0.6-0.2,2-0.2,4.2v43.3c0,2.3,0.1,3.8,0.3,4.3
						s0.5,1,1.1,1.3c0.5,0.3,1.5,0.5,2.8,0.5v0.6h-14.6V425c1.8,0,3-0.4,3.4-1.1c0.4-0.7,0.7-2.4,0.7-5V376c0-2.7-0.2-4.4-0.7-5.3
						c-0.5-0.8-1.6-1.2-3.3-1.1v-0.6H856.8z"/>
					<path d="M907.2,369.1h10.6v0.6c-1.6,0.1-2.7,0.4-3.3,1.1s-0.9,2-0.9,4.1v51.4l-43.6-48V420c0,1.3,0.1,2.3,0.3,3
						c0.2,0.6,0.5,1.1,0.9,1.3c0.4,0.2,1.3,0.5,2.8,0.7v0.6h-10.5V425c1.9,0,3-0.3,3.5-1s0.7-2.3,0.7-4.9v-38.2
						c0-3.3-0.5-6.1-1.4-8.2s-3-3.1-6.3-2.9v-0.6h10.3l41,45.1v-39.9c0-2.1-0.4-3.5-1.1-3.9c-0.7-0.5-1.7-0.7-2.9-0.7V369.1z"/>
					<path d="M968.1,369.1h10.6v0.6c-1.6,0.1-2.7,0.4-3.3,1.1s-0.9,2-0.9,4.1v51.4l-43.6-48V420c0,1.3,0.1,2.3,0.3,3
						c0.2,0.6,0.5,1.1,0.9,1.3c0.4,0.2,1.3,0.5,2.8,0.7v0.6h-10.5V425c1.9,0,3-0.3,3.5-1s0.7-2.3,0.7-4.9v-38.2
						c0-3.3-0.5-6.1-1.4-8.2s-3-3.1-6.3-2.9v-0.6h10.3l41,45.1v-39.9c0-2.1-0.4-3.5-1.1-3.9c-0.7-0.5-1.7-0.7-2.9-0.7V369.1z"/>
				</g>
			</g>
		</g>
	</g>
</g>
</svg>
