<?xml version="1.0" encoding="utf-8"?>
<!-- Generator: Adobe Illustrator 25.2.3, SVG Export Plug-In . SVG Version: 6.00 Build 0)  -->
<svg version="1.1" id="Layer_1" xmlns="http://www.w3.org/2000/svg" xmlns:xlink="http://www.w3.org/1999/xlink" x="0px" y="0px"
	 viewBox="0 0 333 333" style="enable-background:new 0 0 333 333;" xml:space="preserve">
<style type="text/css">
	.st0{fill:#FFFFFF;}
</style>
<g id="Layer_2_1_">
	<g id="Layer_1-2">
		<path class="st0" d="M332.9,206.9c0-9.6,0-19.1,0-28.7c0-11.9,0-23.8,0-35.7c0-27.8,0.1-56.5-0.2-84.8c-0.1-15.2-6.2-29.7-17-40.4
			c-10.8-10.8-25.4-16.9-40.6-17C252-0.1,228.5,0,205.8,0c-9.2,0-18.4,0-27.6,0h-0.1h-30.9c-29.4,0-59.7,0-89.6,0.2
			c-15.9,0.1-29.7,6.2-41.1,18S-0.2,44.5,0,62.9c0.2,21.6,0.2,43.6,0.1,64.8c0,9.1,0,18.1,0,27.1c0,11.5,0,22.9,0,34.4
			c0,28.2,0,57.4,0.1,86.1c0.1,15.9,6.1,29.7,18,41.1C29.7,327.6,44,333,61.8,333h0.6c22.4-0.1,45.3-0.1,67.3-0.1H156
			c2.9,0,5.8,0,8.6-0.2l1.5-0.1l1.4-0.1V193.8H166h-5.2c-4.1,0-7.9-0.1-11.8,0.1c-0.9,0.1-1.7,0-2.5-0.4c-0.4-0.7-0.6-1.4-0.5-2.2
			c0.1-15.8,0.1-32.5,0-49.5c-0.1-0.8,0.1-1.5,0.5-2.1c0.4-0.4,1.2-0.5,2.5-0.5c3.9,0.1,7.7,0.1,11.8,0.1h5.5h1.5v-1.5
			c0-0.8,0-1.4,0-2.1c0-1.3,0-2.5,0-3.7c0.1-3,0.2-6.1,0.2-9c0-6.7,0.4-13.5,1.4-20.1c3.8-23,16.9-37.3,37.8-41.2
			c22-4.2,43.5,0.8,65.3,6.8v46.9h-27.2c-7,0-10.8,0.1-13,2.4s-2.3,6.2-2.2,13.4c0.1,7.5,0.8,8.2,8.3,8.2h35.5c0,0.4,0,0.8,0,1.2
			c-0.8,5-1.7,10-2.5,15.1c-2,11.8-4.1,24-5.9,36c-0.4,2.3-0.9,2.3-3.3,2.3h-31.2l-0.2,1.3c-0.1,0.6-0.2,1.1-0.3,1.6
			c-0.2,0.9-0.3,1.8-0.3,2.6c0,13.8,0,27.7,0,41.5c0,28.3,0,57.6-0.1,86.4c-0.2,1.6,0.3,3.1,1.4,4.3c1.2,1.2,3.1,1.4,4.6,1.4
			c5.4,0,10.8,0,16.1,0c7.7,0,15.6,0.1,23.4-0.1c15.8-0.3,29.4-6.4,40.6-17.9s16.7-26.4,16.6-44.2
			C332.9,249.4,332.9,227.8,332.9,206.9z M235.3,327.9c0-0.1,0-0.4,0-0.6c0.1-28.9,0.1-58.3,0.1-86.8v-5.3c0-12,0-24,0-35.9
			c0-0.1,0-0.3,0-0.5h26.9c2.4,0,7.3,0,8.3-6.6c1.8-12,3.9-24.1,5.9-35.9l0.2-0.9c0.8-4.7,1.6-9.4,2.4-14.2c0.1-0.8,0.1-1.6,0.1-2.4
			c0-0.3,0-0.7,0-1.1v-3.5h-40.8c-0.9,0-2.1,0-2.9,0c-0.1-0.9-0.1-2.2-0.1-3.3c-0.1-4-0.1-8.9,0.7-9.8s5.9-0.9,9.8-0.9h31.8V64.4
			l-2.6-0.7c-22.8-6.3-45.2-11.7-68.7-7.2c-23.1,4.4-37.6,20.1-41.8,45.3c-1,6.9-1.4,13.9-1.4,20.9c-0.1,2.9-0.1,5.9-0.2,8.8
			c0,0.8-0.1,1.6,0,2.5h-2c-4,0-7.8,0-11.6-0.1c-1.9-0.1-4.3,0.1-6.1,1.9c-1.4,1.6-2.2,3.6-2,5.8c0.1,17.1,0.1,33.7,0,49.4
			c-0.1,2.1,0.6,4.2,2,5.8c1.8,1.8,4.4,1.9,6.1,1.9c3.8-0.1,7.6-0.1,11.6-0.1h1.7v129c-0.5,0-1.1,0-1.6,0c-9.5,0-19,0-28.5,0h-3.7
			c-21.7,0-44.2,0-66.3,0.1h-0.6c-16.5,0-29.6-4.9-40.2-15.1c-10.9-10.4-16.4-23-16.5-37.4c-0.2-28.6-0.1-57.7-0.1-85.9v-0.2
			c0-11.5,0-22.9,0-34.4c0-8.8,0-17.6,0-26.4v-0.7c0-21.3,0.1-43.2-0.1-64.9c-0.2-17,4.8-30.5,15.1-41.2s23-16.3,37.6-16.4
			c17-0.1,35-0.2,58.7-0.2h30.9h30.9h27.7C228.5,5,252,4.9,275,5.2c29,0.1,52.5,23.5,52.7,52.5c0.3,28.3,0.2,57,0.2,84.8v1.3
			c0,11.5,0,22.9,0,34.4c0,9.5,0,19,0,28.5v0.7c0,20.8,0,42.2,0.1,63.4c0.1,16.8-4.9,30.1-15.2,40.7s-22.7,16.1-37.1,16.4
			c-7.7,0.2-15.6,0.1-23.3,0.1c-5,0-10.6,0-16.2,0C235.9,327.9,235.6,327.8,235.3,327.9L235.3,327.9z"/>
	</g>
</g>
</svg>
