<?xml version="1.0" encoding="utf-8"?>
<!-- Generator: Adobe Illustrator 25.2.3, SVG Export Plug-In . SVG Version: 6.00 Build 0)  -->
<svg version="1.1" id="Layer_1" xmlns="http://www.w3.org/2000/svg" xmlns:xlink="http://www.w3.org/1999/xlink" x="0px" y="0px"
	 viewBox="0 0 337.7 337.7" style="enable-background:new 0 0 337.7 337.7;" xml:space="preserve">
<style type="text/css">
	.st0{fill:#FFFFFF;}
</style>
<g id="Layer_2_1_">
	<g id="Layer_1-2">
		<path class="st0" d="M168.8,0C75.7,0,0,75.7,0,168.8c0,84.1,61.8,154,142.3,166.8c0-1.8,0-3.6,0-5.3c0.1-6.8,0.2-13.6,0.2-20.4
			V272l-2.9,0.5c-0.8,0.1-1.6,0.3-2.3,0.4c-1.1,0.2-2.2,0.4-3.3,0.5c-19.4,1.3-32.6-1.5-38.8-19.8c-1.3-3.8-4.2-6.9-6.9-9.9
			c-1.4-1.4-2.7-2.9-3.9-4.5c-0.7-1-1.4-2.2-1.9-3.3c1.1-0.4,2.4-0.5,3.6-0.3c5.6,1.7,10.2,5.6,14.4,12.4
			c11.1,17.8,26,15.8,37.7,12.1c2.8-0.9,4.5-4.2,5-5.2c1.7-3.6,3.2-7.4,4.7-11c0.6-1.4,1.2-2.9,1.8-4.3l1.1-2.6l-2.7-0.8L148,236
			c-0.4-0.1-1.2-0.4-1.9-0.5c-0.8-0.2-1.8-0.3-2.7-0.5l-1.8-0.3c-26.1-4.5-40.8-16-46.5-36c-7.1-25-4.8-42.9,7.3-58.1
			c1.8-2.3,1.4-6,0.9-7.9c-2.6-9.5-2.5-18,0.5-25.8c0.5-1.3,1.3-2.4,2.4-3.2c14.2-1.2,23.2,1.7,30.2,9.8c2.2,2.3,5.4,3.4,8.5,3
			c19.8-4.1,38-4.2,55.4-0.2c4.6,1,8.4,0.5,13.1-2c7.4-3.6,14.9-6.9,22.6-9.7l2.6-1c0.7-0.4,1.5-0.4,2.2-0.2
			c0.9,0.7,1.5,1.6,1.7,2.7c2.9,9.8,3.4,18.1,1.3,26.1c-0.2,0.9-1.3,5.5,0.9,8c9.6,11.3,12.9,25.2,10.6,45.2
			c-2.8,24-14.5,38.9-35.8,45.7c-4.6,1.5-9.4,2.5-14.4,3.6c-2.3,0.5-4.8,1-7.2,1.6l-4.2,1l3,3.2c6.9,7.2,7.5,16.5,7.5,25.5v43.8
			c0,5.2,0.1,10.5,0.1,10.5c0,5.3,0.1,10.7,0.1,16c79.2-20.5,133.8-90.7,133.3-167.6C337.2,80.3,263.7,0,168.8,0z M209.4,329.4
			c0-1.8-0.1-3.7-0.1-5.5c0-1.2,0-2.4-0.1-3.7c0,0-0.1-5.2-0.1-10.4v-43.8c0-8.7-0.5-17.8-6.2-25.7l3.2-0.7c5.1-1.1,10-2.2,14.8-3.7
			c23-7.3,36.2-24.1,39.2-49.9c1.7-14.4,1.9-33-11.7-48.9c-0.3-1.2-0.2-2.4,0.1-3.6c2.3-8.9,1.9-18-1.3-28.8
			c-0.9-2.9-2.3-4.8-4.3-5.8c-2-0.9-4.3-0.9-6.2,0l-2.6,1c-7.9,2.9-15.6,6.3-23.1,10c-3.7,1.9-6.3,2.3-9.7,1.6
			c-18.2-4.2-37-4.1-57.6,0.1c-1.4,0.1-2.7-0.4-3.7-1.3c-10.2-12-23.8-12.4-34.5-11.5c-3.1,0.3-5.7,4.1-6.6,6.4
			c-3.4,8.8-3.6,18.3-0.7,28.9c0.4,1.1,0.4,2.3,0,3.5c-17.1,21.2-13.4,44.6-8.3,62.5c6.3,22.1,22.3,34.7,50.5,39.5l1.9,0.3l1.6,0.2
			l-0.7,1.6c-1.5,3.6-3,7.3-4.6,10.8c-0.4,1-1.1,1.9-2,2.6c-15.2,4.8-24.4,1.9-31.9-10c-4.9-7.9-10.4-12.5-17.2-14.6
			c-2.3-0.7-4.6-0.1-6.7,0.4c-0.8,0.2-1.6,0.4-2.3,0.5l-3.5,0.5l1.7,3.1c0.3,0.7,0.7,1.3,1,2c0.8,1.7,1.7,3.3,2.7,4.9
			c1.3,1.7,2.7,3.3,4.2,4.9c2.5,2.7,4.9,5.3,5.8,8.1c7.6,22.4,25.6,24.4,43.8,23.1c1-0.1,2.1-0.2,3.1-0.4v31.9l-0.2,19.8
			C62,314.9,5,248.4,5,168.8C5,78.5,78.5,5,168.8,5c92.4,0,163.5,78.4,163.8,163.8C333,240.7,283.1,307.1,209.4,329.4z"/>
	</g>
</g>
</svg>
