<svg xmlns="http://www.w3.org/2000/svg" viewBox="0 0 337.67 337.67"><defs><style>.cls-1{fill:#fff;}</style></defs><g id="Layer_2" data-name="Layer 2"><g id="Layer_1-2" data-name="Layer 1"><path class="cls-1" d="M168.83,0C75.74,0,0,75.74,0,168.83S75.74,337.67,168.83,337.67s168.84-75.74,168.84-168.84S261.93,0,168.83,0Zm38.06,328.19c0-1.95-.09-4.27-.13-6.88,0,0-.06-5.2-.06-10.42,0-15,0-29.41,0-43.84,0-9.84-.73-19.45-8.17-27.2,7.6-1.82,14.82-3.09,21.76-5.29,23.25-7.37,34.77-24.3,37.51-47.77,2-16.94.63-33.23-11.15-47.07-1-1.2-.84-4-.36-5.81,2.42-9.31,1.41-18.34-1.31-27.4-1.17-3.93-3.53-5.56-7.19-4.14-8.59,3.36-17.27,6.62-25.44,10.83-3.93,2-7.11,2.75-11.41,1.76-18.81-4.32-37.65-3.77-56.51.15A7.62,7.62,0,0,1,138.3,113c-8.71-10.18-20.19-11.72-32.39-10.66-1.64.14-3.69,2.86-4.44,4.81-3.42,9-3.12,18.1-.58,27.31.49,1.75.55,4.43-.45,5.67-14.93,18.56-13.77,39.31-7.8,60.3,6.86,24.11,25.64,33.79,48.53,37.76,1.48.26,3,.45,4.46.74a18.11,18.11,0,0,1,2,.54c-2.15,5.14-4.15,10.26-6.46,15.24-.71,1.54-2,3.43-3.49,3.89-14,4.46-25.64,3.57-34.77-11-3.93-6.3-8.75-11.36-15.84-13.49-2.34-.71-5.28.59-8,1a50.45,50.45,0,0,0,3.54,6.57c3.42,4.64,8.66,8.56,10.4,13.7,6.57,19.44,20.89,22.84,41.3,21.47,1.69-.11,3.36-.51,5.77-.88v34.93l-.24,19.29C63.3,316.39,5,249.29,5,168.83,5,78.5,78.5,5,168.83,5S332.67,78.5,332.67,168.83C332.67,246.07,278.94,311,206.89,328.19Z"/></g></g></svg>