<svg xmlns="http://www.w3.org/2000/svg" viewBox="0 0 863 867.74"><defs><style>.cls-1{fill:#fff;}</style></defs><g id="Layer_2" data-name="Layer 2"><g id="Layer_1-2" data-name="Layer 1"><g id="Layer_1-3" data-name="Layer_1"><g id="_989192848" data-name=" 989192848"><path class="cls-1" d="M653,802.43h38.3A106.82,106.82,0,0,0,797.69,696V171.79A106.82,106.82,0,0,0,691.27,65.3H171.79A106.94,106.94,0,0,0,65.3,171.79V696A107.07,107.07,0,0,0,171.79,802.51h37.3V643.24a32.74,32.74,0,0,1,13.32-26.35L409.54,455.54a32.53,32.53,0,0,1,42.84.22L641.74,619A32.69,32.69,0,0,1,653,644.9Zm38.3,65.31H620.43v-.15a32.56,32.56,0,0,1-32.55-32.54V658.58l-157-135.43L274.39,658.08v177h-.14a32.49,32.49,0,0,1-32.47,32.54h-70A171.94,171.94,0,0,1,0,696V171.79A172.2,172.2,0,0,1,171.79,0H691.27A172.2,172.2,0,0,1,863,171.79V696A172.2,172.2,0,0,1,691.27,867.74Z"/><path class="cls-1" d="M177.62,612.79a32.82,32.82,0,0,1-43-49.61L409.39,326.23a32.83,32.83,0,0,1,43.13.22L587,442.36V363.6a30.41,30.41,0,0,1,30.38-30.31h0a30.4,30.4,0,0,1,30.31,30.31v131l80.79,69.69a32.82,32.82,0,0,1-43,49.61L430.85,394.41Z"/><path class="cls-1" d="M367,654.8h56.6v63.58H367Zm72.43,0H496v63.58H439.45ZM497,736.21v63.58H440.45V736.21Zm-73.35,63.58H367V736.21h56.6Z"/></g></g><path class="cls-1" d="M188.11,145.21V183H245.7V145.21q0-8.09,3.64-12.12a12.23,12.23,0,0,1,9.57-4.05,12.75,12.75,0,0,1,9.75,4q3.72,4,3.72,12.17V249q0,8.19-3.77,12.22a12.67,12.67,0,0,1-9.7,4.05,12.19,12.19,0,0,1-9.62-4.09q-3.58-4.1-3.59-12.18V204.69H188.11V249q0,8.19-3.77,12.22a12.68,12.68,0,0,1-9.71,4.05,12.18,12.18,0,0,1-9.61-4.09q-3.6-4.1-3.59-12.18V145.21q0-8.09,3.55-12.12a12.16,12.16,0,0,1,9.65-4.05,12.72,12.72,0,0,1,9.75,4Q188.12,137,188.11,145.21Z"/><path class="cls-1" d="M359,129q20.49,0,35.18,8.31A53.88,53.88,0,0,1,416.4,161q7.55,15.33,7.55,36a88.2,88.2,0,0,1-4.13,27.77,60.18,60.18,0,0,1-12.4,21.65,54.08,54.08,0,0,1-20.31,14q-12,4.86-27.58,4.86a72.78,72.78,0,0,1-27.67-5,54.78,54.78,0,0,1-20.39-14.06,60,60,0,0,1-12.36-21.83,88.31,88.31,0,0,1-4.18-27.58,85.32,85.32,0,0,1,4.36-27.86,59.73,59.73,0,0,1,12.63-21.56A54.4,54.4,0,0,1,332,133.76,72.56,72.56,0,0,1,359,129Zm37.92,67.75q0-14.47-4.67-25.07a35,35,0,0,0-13.35-16,36.69,36.69,0,0,0-19.9-5.43,36,36,0,0,0-14.78,3A32.39,32.39,0,0,0,332.53,162a41.82,41.82,0,0,0-7.72,14.68A66.38,66.38,0,0,0,322,196.79a67.94,67.94,0,0,0,2.83,20.3,41.56,41.56,0,0,0,8,15,33.75,33.75,0,0,0,11.86,8.94,37.48,37.48,0,0,0,33.51-2.16q8.58-5.11,13.66-15.81T396.91,196.79Z"/><path class="cls-1" d="M491.24,243.14l-21.11-83.91v90.92q0,7.54-3.37,11.32a12.35,12.35,0,0,1-17.74,0q-3.42-3.74-3.42-11.37V145.93q0-8.62,4.49-11.63t12.13-3h8.27q7.45,0,10.83,1.35a9.09,9.09,0,0,1,5,4.85A75,75,0,0,1,490,148.9L509.12,221l19.14-72.14a75.24,75.24,0,0,1,3.68-11.41,9.08,9.08,0,0,1,5-4.85q3.36-1.35,10.82-1.35H556q7.63,0,12.13,3t4.49,11.63V250.15q0,7.54-3.37,11.32a11.48,11.48,0,0,1-9,3.78,11.21,11.21,0,0,1-8.71-3.78q-3.42-3.77-3.42-11.32V159.23L527,243.14c-1.38,5.46-2.5,9.45-3.37,12a16.54,16.54,0,0,1-4.8,7q-3.51,3.15-9.71,3.15a14.26,14.26,0,0,1-12.94-7.19,30,30,0,0,1-2.83-7C492.67,248.55,492,245.9,491.24,243.14Z"/><path class="cls-1" d="M686.83,151.86h-60.1v32.35h55.34q6.1,0,9.12,2.74a9.31,9.31,0,0,1,3,7.23,9.67,9.67,0,0,1-3,7.32q-3,2.83-9.17,2.83H626.73V241.8H688.9q6.29,0,9.48,2.92a10,10,0,0,1,3.19,7.77,9.85,9.85,0,0,1-3.19,7.59q-3.2,2.93-9.48,2.92H616.4q-8.71,0-12.54-3.86T600,246.65v-99a22.2,22.2,0,0,1,1.71-9.39,10.63,10.63,0,0,1,5.35-5.3,22.41,22.41,0,0,1,9.3-1.66h70.43q6.39,0,9.48,2.83a10.51,10.51,0,0,1,0,14.91Q693.22,151.86,686.83,151.86Z"/></g></g></svg>