<svg xmlns="http://www.w3.org/2000/svg" viewBox="0 0 332.67 332.67"><defs><style>.cls-1{fill:#fff;}</style></defs><g id="Layer_2" data-name="Layer 2"><g id="Layer_1-2" data-name="Layer 1"><path class="cls-1" d="M273.22,332.67H59.45A59.52,59.52,0,0,1,0,273.22V59.45A59.52,59.52,0,0,1,59.45,0H273.22a59.52,59.52,0,0,1,59.45,59.45V273.22A59.52,59.52,0,0,1,273.22,332.67ZM59.45,5A54.5,54.5,0,0,0,5,59.45V273.22a54.51,54.51,0,0,0,54.45,54.45H273.22a54.52,54.52,0,0,0,54.45-54.45V59.45A54.51,54.51,0,0,0,273.22,5Z"/><path class="cls-1" d="M283.83,278.38H229.94l-.11-2.4c0-.62-.05-1.24-.09-1.87-.07-1.37-.14-2.78-.15-4.21q0-10.78,0-21.58c0-16.34,0-33.24-.11-49.86a79.32,79.32,0,0,0-1.9-17.25c-1.87-8-6.45-13-13.61-14.9a24.92,24.92,0,0,0-21.24,3.82,24.21,24.21,0,0,0-9.95,18.46c-.44,8.5-.36,17.22-.28,25.64,0,2.9,0,5.8,0,8.7q0,18.56.18,37.11,0,7.9.08,15.82l0,2.52H127.74l.1-2.6c.07-1.9.16-3.79.25-5.69.2-4,.39-8.1.4-12.11.06-31.91.07-64.36.08-95.73v-36.9h54v15.48c13.93-16.79,32.77-22.83,56.06-18,22.53,4.72,36.82,19.45,42.46,43.78.78,3.39,1.35,6.84,1.89,10.19.25,1.53.5,3.06.77,4.59l0,.44Zm-49.12-5h44.12V182.1c-.26-1.48-.5-3-.74-4.44-.53-3.27-1.09-6.65-1.84-9.88-5.16-22.26-18.15-35.72-38.6-40-22.5-4.71-40.43,1.65-53.29,18.92l-1.09,1.43-5.66,7.34V130.35h-44v31.9c0,31.38,0,63.82-.08,95.73,0,4.14-.21,8.31-.4,12.35l-.15,3.05h44.88q0-6.66-.07-13.31-.12-18.57-.18-37.13c0-2.89,0-5.78,0-8.66-.08-8.5-.16-17.29.29-25.95a29.21,29.21,0,0,1,12-22.25,29.93,29.93,0,0,1,25.48-4.6c8.94,2.41,14.88,8.84,17.18,18.59a84.31,84.31,0,0,1,2,18.35c.14,16.64.12,33.55.11,49.9q0,10.8,0,21.58C234.6,271,234.65,272.19,234.71,273.38Z"/><path class="cls-1" d="M105.83,278.38h-54V125.3h54Zm-49-5h44V130.3h-44Z"/><path class="cls-1" d="M78.83,109.87a27,27,0,1,1,27-27A27,27,0,0,1,78.83,109.87Zm0-49a22,22,0,1,0,22,22A22,22,0,0,0,78.83,60.87Z"/></g></g></svg>