<svg xmlns="http://www.w3.org/2000/svg" viewBox="0 0 332.98 332.96"><defs><style>.cls-1{fill:#fff;}</style></defs><g id="Layer_2" data-name="Layer 2"><g id="Layer_1-2" data-name="Layer 1"><path class="cls-1" d="M332.9,206.85q0-14.34,0-28.7,0-17.85,0-35.69c.05-27.79.1-56.53-.2-84.8a57.56,57.56,0,0,0-17-40.43,58.31,58.31,0,0,0-40.6-17C252-.07,228.52,0,205.8,0q-13.78,0-27.58,0h-.11l-30.9,0C117.85,0,87.49,0,57.62.2c-15.91.1-29.74,6.15-41.1,18S-.17,44.54,0,62.92c.2,21.61.17,43.59.13,64.84q0,13.58,0,27.13,0,17.19,0,34.37c0,28.22,0,57.41.11,86.12.09,15.85,6.14,29.67,18,41.08C29.74,327.56,44,333,61.85,333h.6c22.45-.15,45.27-.12,67.35-.1l26.22,0c2.89,0,5.84,0,8.56-.16l1.5-.09,1.42-.08V193.82H166l-5.2,0c-4.05,0-7.88-.05-11.75.06a3.7,3.7,0,0,1-2.47-.45,3.41,3.41,0,0,1-.49-2.18c.13-15.8.13-32.46,0-49.52a3.41,3.41,0,0,1,.5-2.15c.36-.36,1.18-.51,2.52-.47,3.85.1,7.71.08,11.8.06l5.51,0h1.5v-1.5c0-.75,0-1.44,0-2.11,0-1.34,0-2.5,0-3.66.14-3,.2-6.06.25-9a141,141,0,0,1,1.36-20.14c3.81-23,16.88-37.26,37.78-41.25,22-4.19,43.48.75,65.32,6.79v46.9H245.45c-7,0-10.8.14-13,2.39s-2.29,6.15-2.17,13.37c.13,7.54.83,8.24,8.3,8.24h35.52a6.24,6.24,0,0,1,0,1.19c-.84,5-1.7,10-2.55,15.07-2,11.79-4.1,24-5.93,36-.35,2.32-.91,2.33-3.34,2.31H231.1l-.19,1.28c-.08.59-.18,1.11-.26,1.58a14.89,14.89,0,0,0-.31,2.64q0,20.76,0,41.53c0,28.33,0,57.63-.06,86.45a5.66,5.66,0,0,0,1.37,4.29c1.22,1.22,3.05,1.37,4.64,1.36,5.36-.05,10.82,0,16.1,0,7.67,0,15.6.08,23.41-.1,15.78-.34,29.44-6.37,40.61-17.91s16.68-26.36,16.59-44.22C332.86,249.37,332.88,227.76,332.9,206.85Zm-97.62,121c0-.15,0-.35,0-.6.06-28.93.06-58.34.06-86.78v-5.28q0-18,0-35.92c0-.15,0-.32,0-.52h26.85c2.36,0,7.3,0,8.3-6.56,1.83-12,3.9-24.14,5.91-35.9l.16-.93c.8-4.73,1.61-9.45,2.4-14.19a11.33,11.33,0,0,0,.09-2.39c0-.33,0-.7,0-1.12v-3.5H238.27c-.89,0-2.1,0-2.89,0-.07-.86-.09-2.25-.11-3.27-.06-4-.15-8.89.74-9.79s5.86-.9,9.83-.89h31.8V64.44l-2.57-.71c-22.81-6.34-45.22-11.66-68.68-7.19-23.15,4.41-37.6,20.09-41.79,45.34a147.24,147.24,0,0,0-1.42,20.91c-.05,2.91-.11,5.92-.25,8.84,0,.83-.05,1.65,0,2.51h-2c-4,0-7.84,0-11.64-.06-1.9-.05-4.34.12-6.15,1.9a7.56,7.56,0,0,0-2,5.76c.13,17.05.13,33.68,0,49.43a7.92,7.92,0,0,0,2,5.8c1.82,1.79,4.36,1.93,6.11,1.88,3.8-.11,7.58-.09,11.58-.06h1.73v129c-.53,0-1.06,0-1.58,0q-14.25,0-28.5,0h-3.69c-21.74,0-44.21-.05-66.31.1h-.56c-16.48,0-29.63-4.94-40.19-15.1C10.83,302.42,5.29,289.8,5.21,275.35c-.15-28.63-.13-57.74-.11-85.9v-.19q0-17.19,0-34.37,0-13.2,0-26.39v-.73c0-21.26.07-43.24-.13-64.9-.15-17,4.79-30.49,15.12-41.24S43.14,5.29,57.66,5.2c17-.1,35.05-.15,58.66-.15l30.89,0,30.9,0,27.71,0C228.5,5,252,4.93,275,5.22a52.89,52.89,0,0,1,52.7,52.49c.3,28.3.25,57,.2,84.76v1.27q0,17.2,0,34.41,0,14.23,0,28.47v.67c0,20.77,0,42.24.08,63.36.09,16.75-4.88,30.07-15.19,40.73s-22.7,16.07-37.12,16.39c-7.71.17-15.58.13-23.27.09-5,0-10.63-.05-16.16,0A9.43,9.43,0,0,1,235.28,327.82Z"/></g></g></svg>