<?xml version="1.0" encoding="utf-8"?>
<!-- Generator: Adobe Illustrator 25.2.3, SVG Export Plug-In . SVG Version: 6.00 Build 0)  -->
<svg version="1.1" id="Layer_1" xmlns="http://www.w3.org/2000/svg" xmlns:xlink="http://www.w3.org/1999/xlink" x="0px" y="0px"
	 viewBox="0 0 1000 1000" style="enable-background:new 0 0 1000 1000;" xml:space="preserve">
<style type="text/css">
	.st0{fill:url(#SVGID_1_);}
</style>
<g id="Layer_2_1_">
</g>
<linearGradient id="SVGID_1_" gradientUnits="userSpaceOnUse" x1="193.8524" y1="194.2328" x2="1540.8973" y2="1541.2778" gradientTransform="matrix(1 0 0 -1 0 1001.58)">
	<stop  offset="0" style="stop-color:#ED2585"/>
	<stop  offset="0.25" style="stop-color:#F7921E"/>
	<stop  offset="0.5" style="stop-color:#E3DC1B"/>
	<stop  offset="0.75" style="stop-color:#64BE64"/>
	<stop  offset="1" style="stop-color:#5EC7D0"/>
</linearGradient>
<path class="st0" d="M940.1,462.5C901.5,396.8,863.4,331,825.8,265c-23.3-40.7-44.9-82.5-69-122.8c-5.3-8.8-18.1-18.1-27.8-18.5
	c-28.8-1.1-57.7-1.5-86.5-1.6H336.5v0.4c-11.7,0-23.4,0-35.1,0c-32.1-0.3-50.5,11.7-64.5,37.7c-58.4,109.3-117,218.5-175.8,327.6
	c-9.5,17.6-8.8,32.7,1.2,49.8C100.9,603.2,139,669,176.6,735.1c23.3,40.7,44.9,82.5,69,122.7c5.3,8.8,18.2,18.1,27.9,18.5
	c26.9,1,53.8,1.5,80.7,1.6l0,0h311.7v-0.4c11.7,0,23.4,0,35.1,0c32.1,0.2,50.5-11.7,64.5-37.7c58.4-109.3,117-218.5,175.8-327.6
	C950.8,494.7,950.2,479.5,940.1,462.5z M771.9,652.4c-1.7,71.5-48.7,118.5-62.5,132.4c-69.6,69.5-163.7,69.1-198.4,69
	c-84.9-0.3-148.4-34-179.2-53.4c-8.5,27.3-37.5,42.5-64.8,34c-21-6.5-35.5-25.6-36.3-47.6V658.3c2.4-28.4,24.8-50.6,51.3-52.6
	c29.6-2.3,57.4,21.1,60.1,53.1c0.5,4.3,1.4,8.5,2.8,12.5c19.3,56.4,118.8,66.7,137.5,68.3c28.6,2.7,57.5-0.1,85.2-8.2
	c26.4-8.2,78.8-24.4,87.9-65c5.6-24.6-7.5-46.2-10.4-50.7c-15.5-24.3-42-32.3-69-39.4c-77-20.1-97.4-16.5-139.4-27.6
	c-31.7-8.3-97.1-25.5-142.6-82.4c-10.6-13.2-39.9-51.1-42.7-107.3c-2.8-55.5,22-95.9,30.3-108.9c65.8-103.9,207.4-104.2,222.2-104
	c50.8,1.1,100.4,15.2,144.2,40.9c1.1-1.4,18.4-23.8,46.1-21.6c22.6,2.3,41.2,18.7,46.5,40.7l1.5,154.4c-8,24-27,41.6-47.5,43.3
	c-29.3,2.5-62.2-26.9-61.7-69.1c-4.5-10.7-10.6-20.6-18.2-29.4c-28.6-33.5-69.1-40.2-88.7-43.2c-11.8-1.8-108.2-15-146,42.3
	c-3,4.6-21.1,33.1-11.8,63.4c7.7,24.8,29.9,37.7,46.9,47.2c24.5,13.5,51.8,21.3,79.7,23c17,1.3,173.4,14.3,241.8,103.6
	C772.2,588.7,772.1,641.2,771.9,652.4z"/>
</svg>
